<?xml version="1.0" encoding="utf-8"?><svg xmlns="http://www.w3.org/2000/svg" xmlns:xlink="http://www.w3.org/1999/xlink"><symbol viewBox="0 0 97 43" id="logotip" xmlns="http://www.w3.org/2000/svg"><path d="M58.531 8.617H47.615v1.005c.528.05.954.102 1.294.187.409.102.715.222.937.409.647.562.63 1.6.63 3.474v12.636c0 2.571.238 6.216-3.423 6.165-1.567-.017-3.168-1.141-3.661-3.168h-1.26c.527 3.406 2.35 5.722 6.743 5.722h.034c3.73 0 7.068-1.72 7.068-7.561V13.675c0-1.89-.017-2.878.63-3.44.408-.358.766-.528 1.907-.647v-.97h.017zm12.534 0H60.149v1.005c1.14.119 1.481.29 1.907.647.528.443.613 1.175.63 2.418V30.33c-.017 1.243-.119 1.975-.63 2.418-.409.358-.766.528-1.907.647V34.4H76.65l1.738-5.04H77.11c-1.26 2.775-3.235 3.099-5.023 3.099-1.465 0-2.436-.086-3.134-.528-.562-.358-.766-1.294-.766-2.895V13.709c0-1.89-.017-2.93.63-3.474.409-.358 1.107-.494 2.248-.596V8.617z"/><path d="M89.252 8.617H78.338v1.005c1.14.119 1.481.29 1.907.647.528.443.613 1.175.63 2.418V30.33c-.017 1.243-.12 1.975-.63 2.418-.409.358-.766.528-1.907.647V34.4h16.501l1.737-5.04h-1.277c-1.26 2.775-3.236 3.099-5.024 3.099-1.464 0-2.435-.086-3.133-.528-.562-.358-.767-1.294-.767-2.895V13.709c0-1.89-.016-2.93.63-3.474.41-.358 1.108-.494 2.248-.596V8.617z"/><path d="M16.042 42.166c.51-.239.988-.511 1.447-.835.103-.068.205-.136.29-.204.58-.426 1.107-.92 1.618-1.448a15.949 15.949 0 0 0 1.754-2.248c.409-.63.8-1.294 1.14-1.958 1.346-2.623 2.198-5.552 2.64-8.413.29-1.856.426-3.73.426-5.569s-.136-3.712-.425-5.568c-.443-2.861-1.295-5.79-2.64-8.413a15.287 15.287 0 0 0-.494-.902 25.727 25.727 0 0 0-1.771 4.104 32.183 32.183 0 0 1 1.567 8.02c.068.92.085 1.84.085 2.777 0 .92-.017 1.856-.085 2.775-.222 3.321-.92 6.625-2.197 9.707a24.405 24.405 0 0 1-1.754 3.457c-.154.256-.307.528-.477.784a18.3 18.3 0 0 1-1.124 1.515c-.46.562-.937 1.107-1.448 1.601a14.416 14.416 0 0 1-1.754 1.482l-.153.102v.051a8.53 8.53 0 0 0 3.355-.817z" fill="#E30613"/><path d="M22.752 42.166a8.656 8.656 0 0 0 1.447-.835c.102-.068.205-.136.29-.204 1.941-1.465 3.406-3.491 4.513-5.654 1.345-2.623 2.196-5.552 2.64-8.413.289-1.856.425-3.73.425-5.569s-.136-3.712-.426-5.568c-.443-2.861-1.294-5.79-2.64-8.413-1.021-1.992-2.35-3.866-4.07-5.296a20.079 20.079 0 0 0-1.55 1.873c.171.222.324.46.478.681 2.758 4.104 4.087 9.043 4.427 13.948.068.92.085 1.839.102 2.775 0 .92-.034 1.857-.102 2.776-.34 4.905-1.669 9.826-4.427 13.948-.341.51-.716 1.021-1.124 1.515a18.61 18.61 0 0 1-1.448 1.601 14.433 14.433 0 0 1-1.754 1.482l-.153.102v.05a8.237 8.237 0 0 0 3.372-.8z" fill="#E30613"/><path d="M31.215 41.127c1.942-1.465 3.406-3.491 4.513-5.654 1.346-2.623 2.197-5.552 2.64-8.413.29-1.856.426-3.73.426-5.569s-.137-3.712-.426-5.568c-.443-2.861-1.294-5.79-2.64-8.413-1.09-2.146-2.554-4.19-4.513-5.654C29.768.766 27.945.051 26.107 0v.051c1.77 1.243 3.286 2.93 4.478 4.7 2.776 4.104 4.105 9.043 4.428 13.948.068.92.085 1.839.102 2.775 0 .92-.034 1.857-.102 2.776-.34 4.905-1.669 9.826-4.428 13.948-1.192 1.77-2.69 3.474-4.479 4.7v.05c1.84-.016 3.662-.731 5.11-1.821z" fill="#E30613"/><path d="M22.752.834a9.415 9.415 0 0 0-1.448.835c-.102.068-.204.136-.29.204-.578.426-1.106.92-1.617 1.448a15.95 15.95 0 0 0-1.754 2.248c-.409.63-.8 1.294-1.141 1.958-1.346 2.623-2.197 5.552-2.64 8.413a36.235 36.235 0 0 0-.426 5.569c0 1.839.137 3.712.426 5.568.443 2.861 1.294 5.79 2.64 8.413.153.306.323.613.494.902a25.718 25.718 0 0 0 1.77-4.104c-.868-2.588-1.379-5.296-1.566-8.02a37.58 37.58 0 0 1-.085-2.777c0-.92.017-1.856.085-2.775.221-3.321.92-6.625 2.197-9.707a24.408 24.408 0 0 1 1.754-3.457c.153-.256.306-.528.477-.784.34-.51.715-1.021 1.124-1.515.46-.562.936-1.107 1.447-1.601A14.419 14.419 0 0 1 25.953.17l.154-.102V.017c-1.142.034-2.3.34-3.355.817z" fill="#E30613"/><path d="M16.042.834a8.675 8.675 0 0 0-1.448.835 4.268 4.268 0 0 0-.29.204c-1.94 1.465-3.405 3.491-4.512 5.654-1.345 2.623-2.197 5.552-2.64 8.413a36.235 36.235 0 0 0-.425 5.569c0 1.839.136 3.712.425 5.568.443 2.861 1.295 5.79 2.64 8.413 1.022 1.992 2.35 3.866 4.07 5.296a20.077 20.077 0 0 0 1.55-1.873c-.17-.221-.324-.46-.477-.681-2.759-4.105-4.104-9.026-4.428-13.948a49.867 49.867 0 0 1-.102-2.775c0-.92.034-1.857.102-2.776.34-4.905 1.67-9.826 4.428-13.948.34-.51.715-1.021 1.124-1.515a18.59 18.59 0 0 1 1.447-1.601A14.419 14.419 0 0 1 19.261.187l.153-.102v-.05c-1.158.016-2.316.323-3.372.8z" fill="#E30613"/><path d="M7.578 1.873C5.637 3.338 4.172 5.364 3.065 7.527 1.72 10.15.87 13.08.425 15.94A36.235 36.235 0 0 0 0 21.509c0 1.839.136 3.712.426 5.568.443 2.861 1.294 5.79 2.64 8.413 1.09 2.146 2.554 4.19 4.512 5.654 1.448 1.09 3.27 1.805 5.11 1.856v-.051c-1.772-1.243-3.288-2.93-4.48-4.7-2.776-4.104-4.104-9.026-4.427-13.948a48.916 48.916 0 0 1-.103-2.775c0-.92.034-1.857.103-2.776.34-4.905 1.668-9.826 4.427-13.948 1.192-1.77 2.691-3.474 4.48-4.7v-.05c-1.823.016-3.645.731-5.11 1.821zm12.994 38.913a20.065 20.065 0 0 0 1.55-1.873c-.17-.221-.324-.46-.477-.681-.17-.256-.324-.511-.477-.784-.528.8-1.107 1.55-1.754 2.248.357.375.75.75 1.158 1.09zm3.644.545c-.46.324-.936.596-1.447.834a8.529 8.529 0 0 0 3.355.818v-.051a13.2 13.2 0 0 1-1.908-1.6zm-5.449 1.601c.187-.017.357-.051.545-.085-.188-.136-.358-.256-.545-.409a12.89 12.89 0 0 1-1.277-1.124c-.46.324-.937.596-1.448.834.698.324 1.43.545 2.18.682.187.068.357.085.545.102zm.63.051v-.051a.37.37 0 0 1-.085-.068c-.188.034-.358.068-.545.085.204.017.425.034.63.034zM18.222 2.23a20.11 20.11 0 0 0-1.55 1.874c.17.222.324.46.477.681.17.256.323.511.477.784A17.3 17.3 0 0 1 19.38 3.32a11.7 11.7 0 0 0-1.158-1.09z" fill="#E30613"/><path d="M14.594 1.669a9.39 9.39 0 0 1 1.448-.835 8.527 8.527 0 0 0-3.355-.817v.051a17.254 17.254 0 0 1 1.907 1.6zm8.158-.835a8.997 8.997 0 0 0-2.18-.68c-.188-.035-.358-.069-.545-.086l-.63-.051v.051a.37.37 0 0 1 .085.068c.187.136.358.256.545.409.443.34.868.715 1.277 1.124.46-.307.937-.596 1.448-.835z" fill="#E30613"/></symbol><symbol viewBox="0 0 20 1" id="minus" xmlns="http://www.w3.org/2000/svg"><path fill-rule="evenodd" clip-rule="evenodd" d="M19.857 1H.143V0h19.714v1z"/></symbol><symbol viewBox="0 0 20 20" id="plus" xmlns="http://www.w3.org/2000/svg"><path fill-rule="evenodd" clip-rule="evenodd" d="M19.857 10H.143V9h19.714v1z"/><path fill-rule="evenodd" clip-rule="evenodd" d="M10 .143v19.714H9V.143h1z"/></symbol></svg>