<svg width="15" height="17" viewBox="0 0 15 17" xmlns="http://www.w3.org/2000/svg"><path d="M0.555556 3.88889H1.38889V13.0556C1.38889 15.2725 2.94139 16.9444 5 16.9444H10C12.0586 16.9444 13.6111 15.2725 13.6111 13.0556V3.88889H14.4444C14.7511 3.88889 15 3.64 15 3.33333C15 3.02667 14.7511 2.77778 14.4444 2.77778H10.5556V0.555556C10.5556 0.248889 10.3067 0 10 0H5C4.69333 0 4.44444 0.248889 4.44444 0.555556V2.77778H0.555556C0.248889 2.77778 0 3.02667 0 3.33333C0 3.64 0.248889 3.88889 0.555556 3.88889ZM12.5 13.0556C12.5 14.665 11.4486 15.8333 10 15.8333H5C3.55139 15.8333 2.5 14.665 2.5 13.0556V3.88889H12.5V13.0556ZM5.55556 1.11111H9.44444V2.77778H5.55556V1.11111Z M9.4444 6.6667C9.13773 6.6667 8.88884 6.91559 8.88884 7.22225V12.7778C8.88884 13.0845 9.13773 13.3334 9.4444 13.3334C9.75106 13.3334 9.99995 13.0845 9.99995 12.7778V7.22225C9.99995 6.91559 9.75106 6.6667 9.4444 6.6667Z M5.55555 6.6667C5.24888 6.6667 5 6.91559 5 7.22225V12.7778C5 13.0845 5.24888 13.3334 5.55555 13.3334C5.86222 13.3334 6.11111 13.0845 6.11111 12.7778V7.22225C6.11111 6.91559 5.86222 6.6667 5.55555 6.6667Z"/></svg>