<svg width="97" height="43" viewBox="0 0 97 43" xmlns="http://www.w3.org/2000/svg">
<path d="M58.531 8.61707H47.6149V9.62182C48.1428 9.67291 48.5686 9.724 48.9092 9.80914C49.3179 9.91132 49.6244 10.0305 49.8458 10.2179C50.4929 10.7798 50.4759 11.8186 50.4759 13.6919V26.328C50.4759 28.8994 50.7143 32.5438 47.0529 32.4927C45.4862 32.4757 43.8854 31.3517 43.3915 29.3252H42.1313C42.6593 32.7311 44.4814 35.0472 48.8751 35.0472H48.9092C52.6387 35.0472 55.9765 33.3272 55.9765 27.486V13.6749C55.9765 11.7846 55.9595 10.7969 56.6066 10.2349C57.0153 9.87726 57.3729 9.70697 58.5139 9.58776V8.61707H58.531Z"/>
<path d="M71.0648 8.61707H60.1488V9.62182C61.2897 9.74102 61.6303 9.91132 62.0561 10.2689C62.584 10.7117 62.6691 11.444 62.6862 12.6872C62.6862 13.0618 62.6862 13.4876 62.6862 13.9474V29.0697C62.6862 29.5466 62.6862 29.9553 62.6862 30.3299C62.6691 31.5731 62.567 32.3054 62.0561 32.7482C61.6474 33.1058 61.2897 33.2761 60.1488 33.3953V34.4H76.6505L78.3876 29.3592H77.1103C75.8501 32.1351 73.8747 32.4587 72.0866 32.4587C70.622 32.4587 69.6513 32.3735 68.9531 31.9307C68.3911 31.5731 68.1868 30.6365 68.1868 29.0357V13.7089C68.1868 11.8186 68.1697 10.7798 68.8169 10.2349C69.2256 9.87726 69.9238 9.74103 71.0648 9.63885V8.61707Z"/>
<path d="M89.2525 8.61707H78.3365V9.62182C79.4775 9.74102 79.8181 9.91132 80.2438 10.2689C80.7717 10.7117 80.8569 11.444 80.8739 12.6872C80.8739 13.0618 80.8739 13.4876 80.8739 13.9474V29.0697C80.8739 29.5466 80.8739 29.9553 80.8739 30.3299C80.8569 31.5731 80.7547 32.3054 80.2438 32.7482C79.8351 33.1058 79.4775 33.2761 78.3365 33.3953V34.4H94.8383L96.5753 29.3592H95.2981C94.0379 32.1351 92.0624 32.4587 90.2743 32.4587C88.8097 32.4587 87.8391 32.3735 87.1408 31.9307C86.5789 31.5731 86.3745 30.6365 86.3745 29.0357V13.7089C86.3745 11.8186 86.3575 10.7798 87.0046 10.2349C87.4133 9.87726 88.1115 9.74103 89.2525 9.63885V8.61707Z"/>
<path d="M16.042 42.1656C16.5529 41.9271 17.0297 41.6547 17.4895 41.3311C17.5917 41.263 17.6939 41.1949 17.779 41.1268C18.3581 40.701 18.886 40.2071 19.3969 39.6792C20.044 38.981 20.64 38.2317 21.1509 37.4313C21.5596 36.8012 21.9513 36.137 22.2919 35.4729C23.6373 32.8503 24.4887 29.9212 24.9315 27.0602C25.221 25.204 25.3573 23.3307 25.3573 21.4915C25.3573 19.6523 25.221 17.779 24.9315 15.9228C24.4887 13.0618 23.6373 10.1327 22.2919 7.51012C22.1386 7.20358 21.9683 6.89705 21.798 6.60754C21.0828 7.91883 20.5038 9.29824 20.027 10.7117C20.8955 13.3002 21.4064 16.0079 21.5937 18.7327C21.6618 19.6523 21.6788 20.5719 21.6788 21.5085C21.6788 22.4281 21.6618 23.3648 21.5937 24.2844C21.3723 27.6052 20.6741 30.9089 19.3969 33.9913C18.903 35.1834 18.324 36.3414 17.6428 37.4483C17.4895 37.7038 17.3363 37.9763 17.166 38.2317C16.8254 38.7426 16.4507 39.2535 16.042 39.7473C15.5822 40.3093 15.1054 40.8543 14.5945 41.3481C14.0495 41.8931 13.4535 42.387 12.8404 42.8297C12.7893 42.8638 12.7382 42.8978 12.6872 42.9319V42.983C13.8452 42.9489 14.9862 42.6594 16.042 42.1656Z" fill="#E30613"/>
<path d="M22.7517 42.1655C23.2626 41.9271 23.7564 41.6546 24.1992 41.3311C24.3014 41.263 24.4036 41.1948 24.4887 41.1267C26.4301 39.6622 27.8947 37.6356 29.0016 35.4729C30.3469 32.8503 31.1984 29.9212 31.6412 27.0602C31.9307 25.2039 32.0669 23.3307 32.0669 21.4915C32.0669 19.6523 31.9307 17.779 31.6412 15.9228C31.1984 13.0618 30.3469 10.1327 29.0016 7.51008C27.9798 5.51761 26.6515 3.64434 24.9315 2.21384C24.3695 2.80988 23.8586 3.43998 23.3818 4.08711C23.5521 4.3085 23.7053 4.54691 23.8586 4.7683C26.6174 8.87246 27.9457 13.8111 28.2863 18.7156C28.3544 19.6352 28.3715 20.5548 28.3885 21.4915C28.3885 22.4111 28.3544 23.3477 28.2863 24.2673C27.9457 29.1719 26.6174 34.0934 23.8586 38.2146C23.518 38.7255 23.1434 39.2364 22.7347 39.7303C22.2748 40.2923 21.798 40.8372 21.2871 41.3311C20.7422 41.876 20.1461 42.3699 19.5331 42.8127C19.482 42.8467 19.4309 42.8808 19.3798 42.9148V42.9659C20.5548 42.9489 21.6958 42.6594 22.7517 42.1655Z" fill="#E30613"/>
<path d="M31.2154 41.1267C33.1568 39.6622 34.6213 37.6356 35.7283 35.4729C37.0736 32.8503 37.9251 29.9212 38.3679 27.0602C38.6574 25.204 38.7936 23.3307 38.7936 21.4915C38.7936 19.6523 38.6574 17.779 38.3679 15.9228C37.9251 13.0618 37.0736 10.1327 35.7283 7.5101C34.6384 5.36436 33.1738 3.32079 31.2154 1.85624C29.7679 0.766336 27.9457 0.0510891 26.1065 0V0.0510896C27.8776 1.29426 29.3932 2.9802 30.5853 4.75129C33.3611 8.85544 34.6895 13.7941 35.013 18.6986C35.0811 19.6182 35.0982 20.5378 35.1152 21.4745C35.1152 22.3941 35.0811 23.3307 35.013 24.2503C34.6724 29.1549 33.3441 34.0764 30.5853 38.1976C29.3932 39.9687 27.8946 41.6717 26.1065 42.8978V42.9489C27.9457 42.9319 29.7679 42.2166 31.2154 41.1267Z" fill="#E30613"/>
<path d="M22.7517 0.834451C22.2408 1.07287 21.7639 1.34534 21.3041 1.66891C21.202 1.73703 21.0998 1.80514 21.0146 1.87326C20.4356 2.29901 19.9077 2.79287 19.3968 3.32079C18.7497 4.01901 18.1537 4.76831 17.6428 5.56871C17.234 6.19881 16.8424 6.86297 16.5018 7.52712C15.1564 10.1497 14.3049 13.0788 13.8622 15.9398C13.5727 17.796 13.4364 19.6693 13.4364 21.5085C13.4364 23.3477 13.5727 25.221 13.8622 27.0772C14.3049 29.9382 15.1564 32.8673 16.5018 35.4899C16.655 35.7964 16.8253 36.103 16.9956 36.3925C17.7109 35.0812 18.2899 33.7018 18.7667 32.2883C17.8982 29.6998 17.3873 26.9921 17.2 24.2673C17.1319 23.3477 17.1148 22.4281 17.1148 21.4915C17.1148 20.5719 17.1319 19.6352 17.2 18.7156C17.4214 15.3948 18.1196 12.0911 19.3968 9.00871C19.8907 7.81663 20.4697 6.65861 21.1509 5.55168C21.3041 5.29624 21.4574 5.02376 21.6277 4.76831C21.9683 4.25742 22.343 3.74653 22.7517 3.25267C23.2115 2.69069 23.6883 2.14574 24.1992 1.65188C24.7441 1.10693 25.3402 0.613065 25.9533 0.170293C26.0043 0.136234 26.0554 0.102175 26.1065 0.0681153V0.0170257C24.9655 0.0510851 23.8075 0.357619 22.7517 0.834451Z" fill="#E30613"/>
<path d="M16.0419 0.834447C15.531 1.07286 15.0372 1.34534 14.5944 1.6689C14.4922 1.73702 14.3901 1.80514 14.3049 1.87326C12.3635 3.33781 10.899 5.36435 9.79204 7.52712C8.44669 10.1497 7.59521 13.0788 7.15243 15.9398C6.86293 17.796 6.72669 19.6693 6.72669 21.5085C6.72669 23.3477 6.86293 25.221 7.15243 27.0772C7.59521 29.9382 8.44669 32.8673 9.79204 35.4899C10.8138 37.4824 12.1421 39.3556 13.8621 40.7861C14.4241 40.1901 14.935 39.56 15.4118 38.9129C15.2415 38.6915 15.0883 38.4531 14.935 38.2317C12.1762 34.1275 10.8308 29.2059 10.5073 24.2843C10.4392 23.3647 10.4221 22.4451 10.4051 21.5085C10.4051 20.5889 10.4392 19.6523 10.5073 18.7327C10.8479 13.8281 12.1762 8.90653 14.935 4.78534C15.2756 4.27445 15.6503 3.76356 16.059 3.26969C16.5188 2.70771 16.9956 2.16277 17.5065 1.6689C18.0514 1.12395 18.6475 0.630091 19.2606 0.187319C19.3116 0.15326 19.3627 0.1192 19.4138 0.085141V0.0340514C18.2558 0.0510811 17.0978 0.357615 16.0419 0.834447Z" fill="#E30613"/>
<path d="M7.57822 1.87329C5.63683 3.33784 4.17228 5.36438 3.06535 7.52715C1.72 10.1497 0.868515 13.0788 0.425743 15.9398C0.136238 17.7961 0 19.6693 0 21.5085C0 23.3477 0.136238 25.221 0.425743 27.0772C0.868515 29.9382 1.72 32.8673 3.06535 35.4899C4.15525 37.6357 5.6198 39.6792 7.57822 41.1438C9.02574 42.2337 10.8479 42.9489 12.6871 43V42.9489C10.916 41.7058 9.4004 40.0198 8.20832 38.2487C5.43247 34.1446 4.10416 29.223 3.78059 24.3014C3.71247 23.3818 3.69545 22.4622 3.67842 21.5256C3.67842 20.606 3.71247 19.6693 3.78059 18.7497C4.12119 13.8452 5.4495 8.92358 8.20832 4.8024C9.4004 3.03131 10.899 1.32834 12.6871 0.102199V0.0511107C10.8649 0.0681404 9.04277 0.783387 7.57822 1.87329Z" fill="#E30613"/>
<path d="M20.5719 40.7861C21.1339 40.1901 21.6448 39.56 22.1216 38.9128C21.9513 38.6915 21.798 38.453 21.6448 38.2317C21.4745 37.9762 21.3212 37.7208 21.1679 37.4483C20.64 38.2487 20.061 38.998 19.4139 39.6962C19.7715 40.0709 20.1632 40.4455 20.5719 40.7861Z" fill="#E30613"/>
<path d="M24.2163 41.3311C23.7565 41.6547 23.2796 41.9271 22.7687 42.1655C23.8246 42.6594 24.9656 42.9489 26.1236 42.983V42.9319C25.4424 42.455 24.7953 41.9271 24.2163 41.3311Z" fill="#E30613"/>
<path d="M18.7667 42.9319C18.9541 42.9149 19.1244 42.8808 19.3117 42.8467C19.1244 42.7105 18.9541 42.5913 18.7667 42.438C18.324 42.0974 17.8982 41.7228 17.4895 41.3141C17.0297 41.6376 16.5529 41.9101 16.042 42.1485C16.7402 42.4721 17.4725 42.6935 18.2218 42.8297C18.4091 42.8978 18.5794 42.9149 18.7667 42.9319ZM19.3968 42.983V42.9319C19.3628 42.9149 19.3287 42.8808 19.3117 42.8638C19.1244 42.8978 18.9541 42.9319 18.7667 42.9489C18.9711 42.9659 19.1925 42.983 19.3968 42.983Z" fill="#E30613"/>
<path d="M18.2217 2.2309C17.6598 2.82694 17.1489 3.45704 16.672 4.10417C16.8423 4.32556 16.9956 4.56397 17.1489 4.78536C17.3192 5.0408 17.4724 5.29625 17.6257 5.56872C18.1536 4.76833 18.7326 4.01902 19.3798 3.3208C19.0221 2.92912 18.6305 2.5715 18.2217 2.2309Z" fill="#E30613"/>
<path d="M14.5944 1.6689C15.0542 1.34534 15.531 1.07286 16.0419 0.834447C14.9861 0.340585 13.8452 0.0510851 12.6872 0.0170257V0.0681153C13.3683 0.561977 13.9984 1.08989 14.5944 1.6689Z" fill="#E30613"/>
<path d="M22.7517 0.834451C22.0534 0.510886 21.3212 0.289501 20.5719 0.153264C20.3845 0.119204 20.2142 0.085145 20.0269 0.0681153C19.8226 0.0510856 19.6012 0.0340554 19.3968 0.0170257V0.0681153C19.4309 0.085145 19.4649 0.119205 19.482 0.136234C19.6693 0.272472 19.8396 0.391679 20.0269 0.544946C20.4697 0.88554 20.8954 1.26019 21.3041 1.66891C21.7639 1.36237 22.2408 1.07287 22.7517 0.834451Z" fill="#E30613"/>
</svg>
